<svg xmlns="http://www.w3.org/2000/svg" width="30.567" height="48.001" viewBox="0 0 30.567 48.001">
  <path d="M29.839,46.546H27.655V42.421a.725.725,0,0,0-.213-.514l-2.911-2.912a.73.73,0,0,0-.515-.213H18.952c4.377-4.495,6.644-9.09,6.724-13.678a14.335,14.335,0,0,0-3.12-9.145l5.776-5.632a.728.728,0,0,0-.4-1.241l-8.287-1.2L15.936.373a.757.757,0,0,0-1.3,0L10.924,7.882l-8.286,1.2a.727.727,0,0,0-.4,1.241l6,5.847L6.815,24.426a.729.729,0,0,0,1.057.768l7.469-3.927a6.151,6.151,0,0,1,3.669,3.815c.978,3.322-1.061,8.057-5.884,13.7H6.551a.731.731,0,0,0-.515.213L3.125,41.906a.724.724,0,0,0-.214.514v4.125H.728A.728.728,0,1,0,.728,48H29.839a.728.728,0,1,0,0-1.455ZM20.405,24.671a7.672,7.672,0,0,0-4.916-4.895.729.729,0,0,0-.544.055L8.5,23.22l1.23-7.176a.733.733,0,0,0-.209-.645L4.306,10.315l7.207-1.047a.731.731,0,0,0,.547-.4l3.224-6.529L18.506,8.87a.73.73,0,0,0,.549.4l7.207,1.047L21.046,15.4a.728.728,0,0,0-.009,1.034,12.817,12.817,0,0,1,3.184,8.647c-.08,4.542-2.549,9.151-7.331,13.7H15.017C19.663,33.088,21.485,28.343,20.405,24.671ZM4.367,46.546V42.723l2.484-2.484H23.715L26.2,42.723v3.823Z" fill="#1a171b"/>
</svg>
